Encode_Exp_Bd.ufo
<glyph name="ampersand" format="1">
  <advance width="806"/>
  <unicode hex="0026"/>
  <outline>
    <contour>
      <point x="806" y="147" type="line"/>
      <point x="363" y="364" type="line" smooth="yes"/>
      <point x="339" y="373"/>
      <point x="325" y="384"/>
      <point x="325" y="396" type="curve" smooth="yes"/>
      <point x="325" y="416"/>
      <point x="344" y="434"/>
      <point x="449" y="434" type="curve" smooth="yes"/>
      <point x="487" y="434"/>
      <point x="532" y="429"/>
      <point x="563" y="424" type="curve"/>
      <point x="563" y="596" type="line"/>
      <point x="523" y="600"/>
      <point x="482" y="603"/>
      <point x="433" y="603" type="curve" smooth="yes"/>
      <point x="203" y="603"/>
      <point x="95" y="528"/>
      <point x="95" y="406" type="curve" smooth="yes"/>
      <point x="95" y="351"/>
      <point x="122" y="284"/>
      <point x="274" y="209" type="curve" smooth="yes"/>
      <point x="718" y="-8" type="line"/>
    </contour>
    <contour>
      <point x="693" y="283" type="curve" smooth="yes"/>
      <point x="693" y="310"/>
      <point x="689" y="345"/>
      <point x="681" y="376" type="curve"/>
      <point x="505" y="376" type="line"/>
      <point x="513" y="345"/>
      <point x="518" y="309"/>
      <point x="518" y="281" type="curve" smooth="yes"/>
      <point x="518" y="166"/>
      <point x="449" y="136"/>
      <point x="369" y="136" type="curve" smooth="yes"/>
      <point x="312" y="136"/>
      <point x="270" y="152"/>
      <point x="270" y="186" type="curve" smooth="yes"/>
      <point x="270" y="211"/>
      <point x="284" y="227"/>
      <point x="296" y="244" type="curve"/>
      <point x="177" y="313" type="line"/>
      <point x="106" y="298"/>
      <point x="40" y="243"/>
      <point x="40" y="164" type="curve" smooth="yes"/>
      <point x="40" y="59"/>
      <point x="143" y="-7"/>
      <point x="341" y="-7" type="curve" smooth="yes"/>
      <point x="562" y="-7"/>
      <point x="693" y="89"/>
    </contour>
  </outline>
</glyph>
<glyph name="A" format="1">
  <advance width="776"/>
  <unicode hex="0041"/>
  <outline>
    <contour>
      <point x="231" y="0" type="line"/>
      <point x="396" y="504" type="line"/>
      <point x="378" y="504" type="line"/>
      <point x="543" y="0" type="line"/>
      <point x="772" y="0" type="line"/>
      <point x="559" y="595" type="line"/>
      <point x="217" y="595" type="line"/>
      <point x="4" y="0" type="line"/>
    </contour>
    <contour>
      <point x="547" y="119" type="line"/>
      <point x="494" y="282" type="line"/>
      <point x="281" y="282" type="line"/>
      <point x="227" y="119" type="line"/>
    </contour>
    <contour>
      <point x="387" y="611" type="move" name="top"/>
    </contour>
    <contour>
      <point x="772" y="0" type="move" name="ogonek"/>
    </contour>
    <contour>
      <point x="388" y="0" type="move" name="bottom"/>
    </contour>
  </outline>
</glyph>
<glyph name="B" format="1">
  <advance width="663"/>
  <unicode hex="0042"/>
  <outline>
    <contour>
      <point x="644" y="175" type="curve" smooth="yes"/>
      <point x="644" y="259"/>
      <point x="588" y="298"/>
      <point x="528" y="309" type="curve"/>
      <point x="529" y="304" type="line"/>
      <point x="581" y="317"/>
      <point x="628" y="365"/>
      <point x="628" y="427" type="curve" smooth="yes"/>
      <point x="628" y="539"/>
      <point x="537" y="603"/>
      <point x="307" y="603" type="curve" smooth="yes"/>
      <point x="229" y="603"/>
      <point x="117" y="590"/>
      <point x="48" y="574" type="curve"/>
      <point x="48" y="5" type="line"/>
      <point x="106" y="-3"/>
      <point x="209" y="-9"/>
      <point x="267" y="-9" type="curve" smooth="yes"/>
      <point x="558" y="-9"/>
      <point x="644" y="65"/>
    </contour>
    <contour>
      <point x="279" y="143" type="curve"/>
      <point x="279" y="446" type="line"/>
      <point x="296" y="450"/>
      <point x="319" y="453"/>
      <point x="335" y="453" type="curve" smooth="yes"/>
      <point x="391" y="453"/>
      <point x="407" y="439"/>
      <point x="407" y="417" type="curve" smooth="yes"/>
      <point x="407" y="396"/>
      <point x="393" y="380"/>
      <point x="339" y="380" type="curve" smooth="yes"/>
      <point x="254" y="380" type="line"/>
      <point x="254" y="226" type="line"/>
      <point x="358" y="226" type="line" smooth="yes"/>
      <point x="417" y="226"/>
      <point x="430" y="212"/>
      <point x="430" y="183" type="curve" smooth="yes"/>
      <point x="430" y="158"/>
      <point x="411" y="142"/>
      <point x="333" y="142" type="curve" smooth="yes"/>
      <point x="319" y="142"/>
      <point x="302" y="142"/>
    </contour>
    <contour>
      <point x="347" y="595" type="move" name="top"/>
    </contour>
    <contour>
      <point x="347" y="0" type="move" name="bottom"/>
    </contour>
  </outline>
</glyph>
<glyph name="C" format="1">
  <advance width="652"/>
  <unicode hex="0043"/>
  <outline>
    <contour>
      <point x="620" y="6" type="curve"/>
      <point x="620" y="182" type="line"/>
      <point x="582" y="176"/>
      <point x="532" y="170"/>
      <point x="480" y="170" type="curve" smooth="yes"/>
      <point x="330" y="170"/>
      <point x="277" y="222"/>
      <point x="277" y="297" type="curve" smooth="yes"/>
      <point x="277" y="375"/>
      <point x="331" y="425"/>
      <point x="489" y="425" type="curve" smooth="yes"/>
      <point x="537" y="425"/>
      <point x="580" y="422"/>
      <point x="620" y="416" type="curve"/>
      <point x="620" y="592" type="line"/>
      <point x="572" y="600"/>
      <point x="521" y="603"/>
      <point x="469" y="603" type="curve" smooth="yes"/>
      <point x="176" y="603"/>
      <point x="31" y="478"/>
      <point x="31" y="296" type="curve" smooth="yes"/>
      <point x="31" y="103"/>
      <point x="172" y="-8"/>
      <point x="465" y="-8" type="curve" smooth="yes"/>
      <point x="518" y="-8"/>
      <point x="575" y="-2"/>
    </contour>
    <contour>
      <point x="385" y="611" type="move" name="top"/>
    </contour>
    <contour>
      <point x="383" y="0" type="move" name="bottom"/>
    </contour>
  </outline>
</glyph>
<glyph name="E" format="1">
  <advance width="656"/>
  <unicode hex="0045"/>
  <outline>
    <contour>
      <point x="621" y="0" type="line"/>
      <point x="621" y="165" type="line"/>
      <point x="281" y="165" type="line"/>
      <point x="281" y="430" type="line"/>
      <point x="617" y="430" type="line"/>
      <point x="617" y="595" type="line"/>
      <point x="48" y="595" type="line"/>
      <point x="48" y="0" type="line"/>
    </contour>
    <contour>
      <point x="571" y="221" type="line"/>
      <point x="571" y="385" type="line"/>
      <point x="161" y="385" type="line"/>
      <point x="161" y="221" type="line"/>
    </contour>
    <contour>
      <point x="577" y="0" type="move" name="ogonek"/>
    </contour>
    <contour>
      <point x="342" y="611" type="move" name="top"/>
    </contour>
    <contour>
      <point x="16" y="595" type="move" name="topleft"/>
    </contour>
    <contour>
      <point x="342" y="0" type="move" name="bottom"/>
    </contour>
  </outline>
</glyph>
<glyph name="F" format="1">
  <advance width="647"/>
  <unicode hex="0046"/>
  <outline>
    <contour>
      <point x="284" y="0" type="line"/>
      <point x="284" y="423" type="line"/>
      <point x="618" y="423" type="line"/>
      <point x="618" y="595" type="line"/>
      <point x="48" y="595" type="line"/>
      <point x="48" y="0" type="line"/>
    </contour>
    <contour>
      <point x="569" y="193" type="line"/>
      <point x="569" y="365" type="line"/>
      <point x="175" y="365" type="line"/>
      <point x="175" y="193" type="line"/>
    </contour>
  </outline>
</glyph>
<glyph name="G" format="1">
  <advance width="728"/>
  <unicode hex="0047"/>
  <outline>
    <contour>
      <point x="677" y="8" type="curve"/>
      <point x="677" y="289" type="line"/>
      <point x="458" y="289" type="line"/>
      <point x="458" y="70" type="line"/>
      <point x="587" y="175" type="line"/>
      <point x="551" y="170"/>
      <point x="503" y="167"/>
      <point x="467" y="167" type="curve" smooth="yes"/>
      <point x="329" y="167"/>
      <point x="275" y="217"/>
      <point x="275" y="290" type="curve" smooth="yes"/>
      <point x="275" y="374"/>
      <point x="329" y="424"/>
      <point x="516" y="425" type="curve" smooth="yes"/>
      <point x="565" y="425"/>
      <point x="614" y="421"/>
      <point x="651" y="416" type="curve"/>
      <point x="651" y="592" type="line"/>
      <point x="603" y="600"/>
      <point x="543" y="603"/>
      <point x="498" y="603" type="curve" smooth="yes"/>
      <point x="175" y="603"/>
      <point x="31" y="477"/>
      <point x="31" y="294" type="curve" smooth="yes"/>
      <point x="31" y="98"/>
      <point x="173" y="-9"/>
      <point x="481" y="-9" type="curve" smooth="yes"/>
      <point x="549" y="-9"/>
      <point x="615" y="-2"/>
    </contour>
    <contour>
      <point x="412" y="611" type="move" name="top"/>
    </contour>
    <contour>
      <point x="412" y="0" type="move" name="bottom"/>
    </contour>
  </outline>
</glyph>
<glyph name="H" format="1">
  <advance width="782"/>
  <unicode hex="0048"/>
  <outline>
    <contour>
      <point x="284" y="0" type="line"/>
      <point x="284" y="209" type="line"/>
      <point x="498" y="209" type="line"/>
      <point x="498" y="0" type="line"/>
      <point x="734" y="0" type="line"/>
      <point x="734" y="595" type="line"/>
      <point x="498" y="595" type="line"/>
      <point x="498" y="397" type="line"/>
      <point x="284" y="397" type="line"/>
      <point x="284" y="595" type="line"/>
      <point x="48" y="595" type="line"/>
      <point x="48" y="0" type="line"/>
    </contour>
    <contour>
      <point x="392" y="0" type="move" name="bottom"/>
    </contour>
    <contour>
      <point x="392" y="611" type="move" name="top"/>
    </contour>
    <contour>
      <point x="18" y="595" type="move" name="topleft"/>
    </contour>
    <contour>
      <point x="392" y="498" type="move" name="center"/>
    </contour>
  </outline>
</glyph>
<glyph name="I" format="1">
  <advance width="332"/>
  <unicode hex="0049"/>
  <outline>
    <contour>
      <point x="284" y="0" type="line"/>
      <point x="284" y="595" type="line"/>
      <point x="48" y="595" type="line"/>
      <point x="48" y="0" type="line"/>
    </contour>
    <contour>
      <point x="166" y="611" type="move" name="top"/>
    </contour>
    <contour>
      <point x="284" y="0" type="move" name="ogonek"/>
    </contour>
    <contour>
      <point x="165" y="0" type="move" name="bottom"/>
    </contour>
  </outline>
</glyph>
<glyph name="J" format="1">
  <advance width="332"/>
  <unicode hex="004A"/>
  <outline>
    <contour>
      <point x="284" y="133" type="curve"/>
      <point x="284" y="595" type="line"/>
      <point x="50" y="595" type="line"/>
      <point x="50" y="123" type="line" smooth="yes"/>
      <point x="50" y="42"/>
      <point x="37" y="-4"/>
      <point x="-7" y="-54" type="curve"/>
      <point x="137" y="-145" type="line"/>
      <point x="248" y="-56"/>
      <point x="285" y="31"/>
    </contour>
    <contour>
      <point x="167" y="611" type="move" name="top"/>
    </contour>
    <contour>
      <point x="279" y="0" type="move" name="bottom"/>
    </contour>
  </outline>
</glyph>
<glyph name="K" format="1">
  <advance width="677"/>
  <unicode hex="004B"/>
  <outline>
    <contour>
      <point x="705" y="0" type="line"/>
      <point x="474" y="329" type="line"/>
      <point x="468" y="278" type="line"/>
      <point x="683" y="595" type="line"/>
      <point x="437" y="595" type="line"/>
      <point x="238" y="303" type="line"/>
      <point x="450" y="0" type="line"/>
    </contour>
    <contour>
      <point x="284" y="0" type="line"/>
      <point x="284" y="595" type="line"/>
      <point x="48" y="595" type="line"/>
      <point x="48" y="0" type="line"/>
    </contour>
    <contour>
      <point x="331" y="209" type="line"/>
      <point x="331" y="397" type="line"/>
      <point x="253" y="397" type="line"/>
      <point x="253" y="209" type="line"/>
    </contour>
    <contour>
      <point x="356" y="595" type="move" name="top"/>
    </contour>
    <contour>
      <point x="359" y="0" type="move" name="bottom"/>
    </contour>
  </outline>
</glyph>
<glyph name="M" format="1">
  <advance width="953"/>
  <unicode hex="004D"/>
  <outline>
    <contour>
      <point x="272" y="0" type="line"/>
      <point x="272" y="410" type="line"/>
      <point x="215" y="410" type="line"/>
      <point x="380" y="90" type="line"/>
      <point x="573" y="90" type="line"/>
      <point x="726" y="410" type="line"/>
      <point x="681" y="410" type="line"/>
      <point x="681" y="0" type="line"/>
      <point x="903" y="0" type="line"/>
      <point x="903" y="595" type="line"/>
      <point x="616" y="595" type="line"/>
      <point x="467" y="284" type="line"/>
      <point x="492" y="284" type="line"/>
      <point x="337" y="595" type="line"/>
      <point x="50" y="595" type="line"/>
      <point x="50" y="0" type="line"/>
    </contour>
    <contour>
      <point x="493" y="595" type="move" name="top"/>
    </contour>
    <contour>
      <point x="493" y="0" type="move" name="bottom"/>
    </contour>
  </outline>
</glyph>
<glyph name="N" format="1">
  <advance width="785"/>
  <unicode hex="004E"/>
  <outline>
    <contour>
      <point x="270" y="0" type="line"/>
      <point x="270" y="329" type="line"/>
      <point x="235" y="329" type="line"/>
      <point x="502" y="0" type="line"/>
      <point x="737" y="0" type="line"/>
      <point x="737" y="595" type="line"/>
      <point x="515" y="595" type="line"/>
      <point x="515" y="266" type="line"/>
      <point x="550" y="266" type="line"/>
      <point x="284" y="595" type="line"/>
      <point x="48" y="595" type="line"/>
      <point x="48" y="0" type="line"/>
    </contour>
    <contour>
      <point x="392" y="611" type="move" name="top"/>
    </contour>
    <contour>
      <point x="392" y="0" type="move" name="bottom"/>
    </contour>
  </outline>
</glyph>
<glyph name="O" format="1">
  <advance width="833"/>
  <unicode hex="004F"/>
  <outline>
    <contour>
      <point x="802" y="297" type="curve" smooth="yes"/>
      <point x="802" y="480"/>
      <point x="657" y="603"/>
      <point x="416" y="603" type="curve" smooth="yes"/>
      <point x="175" y="603"/>
      <point x="31" y="481"/>
      <point x="31" y="297" type="curve" smooth="yes"/>
      <point x="31" y="113"/>
      <point x="176" y="-8"/>
      <point x="416" y="-8" type="curve" smooth="yes"/>
      <point x="657" y="-8"/>
      <point x="802" y="115"/>
    </contour>
    <contour>
      <point x="269" y="301" type="curve" smooth="yes"/>
      <point x="269" y="383"/>
      <point x="320" y="431"/>
      <point x="416" y="431" type="curve" smooth="yes"/>
      <point x="513" y="431"/>
      <point x="564" y="380"/>
      <point x="564" y="294" type="curve" smooth="yes"/>
      <point x="564" y="215"/>
      <point x="516" y="164"/>
      <point x="416" y="164" type="curve" smooth="yes"/>
      <point x="317" y="164"/>
      <point x="269" y="212"/>
    </contour>
    <contour>
      <point x="416" y="0" type="move" name="bottom"/>
    </contour>
    <contour>
      <point x="482" y="0" type="move" name="ogonek"/>
    </contour>
    <contour>
      <point x="416" y="611" type="move" name="top"/>
    </contour>
    <contour>
      <point x="519" y="595" type="move" name="topright"/>
    </contour>
    <contour>
      <point x="26" y="595" type="move" name="topleft"/>
    </contour>
    <contour>
      <point x="416" y="297" type="move" name="center"/>
    </contour>
  </outline>
</glyph>
<glyph name="P" format="1">
  <advance width="669"/>
  <unicode hex="0050"/>
  <outline>
    <contour>
      <point x="284" y="0" type="line"/>
      <point x="284" y="145" type="line"/>
      <point x="295" y="146"/>
      <point x="312" y="146"/>
      <point x="325" y="146" type="curve" smooth="yes"/>
      <point x="527" y="146"/>
      <point x="638" y="221"/>
      <point x="638" y="374" type="curve" smooth="yes"/>
      <point x="638" y="533"/>
      <point x="526" y="603"/>
      <point x="293" y="603" type="curve" smooth="yes"/>
      <point x="201" y="603"/>
      <point x="120" y="595"/>
      <point x="48" y="583" type="curve"/>
      <point x="48" y="0" type="line"/>
    </contour>
    <contour>
      <point x="284" y="300" type="curve"/>
      <point x="284" y="450" type="line"/>
      <point x="296" y="451"/>
      <point x="305" y="452"/>
      <point x="317" y="452" type="curve" smooth="yes"/>
      <point x="384" y="452"/>
      <point x="411" y="429"/>
      <point x="411" y="374" type="curve" smooth="yes"/>
      <point x="411" y="314"/>
      <point x="383" y="297"/>
      <point x="327" y="297" type="curve" smooth="yes"/>
      <point x="311" y="297"/>
      <point x="301" y="298"/>
    </contour>
  </outline>
</glyph>
<glyph name="Q" format="1">
  <advance width="833"/>
  <unicode hex="0051"/>
  <outline>
    <contour>
      <point x="800" y="-12" type="line"/>
      <point x="662" y="5"/>
      <point x="543" y="29"/>
      <point x="424" y="67" type="curve"/>
      <point x="343" y="14" type="line"/>
      <point x="663" y="-24"/>
      <point x="802" y="116"/>
      <point x="802" y="297" type="curve" smooth="yes"/>
      <point x="802" y="479"/>
      <point x="658" y="603"/>
      <point x="416" y="603" type="curve" smooth="yes"/>
      <point x="175" y="603"/>
      <point x="31" y="481"/>
      <point x="31" y="288" type="curve" smooth="yes"/>
      <point x="31" y="96"/>
      <point x="178" y="-90"/>
      <point x="765" y="-176" type="curve"/>
    </contour>
    <contour>
      <point x="269" y="301" type="curve" smooth="yes"/>
      <point x="269" y="383"/>
      <point x="320" y="431"/>
      <point x="416" y="431" type="curve" smooth="yes"/>
      <point x="513" y="431"/>
      <point x="564" y="380"/>
      <point x="564" y="294" type="curve" smooth="yes"/>
      <point x="564" y="215"/>
      <point x="516" y="164"/>
      <point x="416" y="164" type="curve" smooth="yes"/>
      <point x="315" y="164"/>
      <point x="269" y="210"/>
    </contour>
  </outline>
</glyph>
<glyph name="R" format="1">
  <advance width="688"/>
  <unicode hex="0052"/>
  <outline>
    <contour>
      <point x="279" y="0" type="line"/>
      <point x="279" y="186" type="line"/>
      <point x="295" y="186"/>
      <point x="313" y="185"/>
      <point x="326" y="185" type="curve" smooth="yes"/>
      <point x="506" y="185"/>
      <point x="628" y="257"/>
      <point x="628" y="395" type="curve" smooth="yes"/>
      <point x="628" y="539"/>
      <point x="512" y="603"/>
      <point x="304" y="603" type="curve" smooth="yes"/>
      <point x="229" y="603"/>
      <point x="119" y="590"/>
      <point x="48" y="574" type="curve"/>
      <point x="48" y="0" type="line"/>
    </contour>
    <contour>
      <point x="696" y="0" type="line"/>
      <point x="491" y="271" type="line"/>
      <point x="237" y="271" type="line"/>
      <point x="439" y="0" type="line"/>
    </contour>
    <contour>
      <point x="279" y="342" type="curve"/>
      <point x="279" y="448" type="line"/>
      <point x="293" y="451"/>
      <point x="316" y="453"/>
      <point x="326" y="453" type="curve" smooth="yes"/>
      <point x="382" y="453"/>
      <point x="411" y="433"/>
      <point x="411" y="395" type="curve" smooth="yes"/>
      <point x="411" y="351"/>
      <point x="382" y="338"/>
      <point x="336" y="338" type="curve" smooth="yes"/>
      <point x="322" y="338"/>
      <point x="296" y="340"/>
    </contour>
    <contour>
      <point x="349" y="611" type="move" name="top"/>
    </contour>
    <contour>
      <point x="356" y="0" type="move" name="bottom"/>
    </contour>
  </outline>
</glyph>
<glyph name="S" format="1">
  <advance width="605"/>
  <unicode hex="0053"/>
  <outline>
    <contour>
      <point x="582" y="194" type="curve" smooth="yes"/>
      <point x="582" y="298"/>
      <point x="514" y="352"/>
      <point x="360" y="380" type="curve" smooth="yes"/>
      <point x="261" y="397"/>
      <point x="254" y="402"/>
      <point x="254" y="413" type="curve" smooth="yes"/>
      <point x="254" y="422"/>
      <point x="272" y="434"/>
      <point x="378" y="434" type="curve" smooth="yes"/>
      <point x="432" y="434"/>
      <point x="502" y="426"/>
      <point x="543" y="415" type="curve"/>
      <point x="543" y="587" type="line"/>
      <point x="498" y="596"/>
      <point x="435" y="603"/>
      <point x="365" y="603" type="curve" smooth="yes"/>
      <point x="135" y="603"/>
      <point x="24" y="533"/>
      <point x="24" y="403" type="curve" smooth="yes"/>
      <point x="24" y="306"/>
      <point x="90" y="239"/>
      <point x="228" y="219" type="curve" smooth="yes"/>
      <point x="338" y="204"/>
      <point x="351" y="195"/>
      <point x="351" y="178" type="curve" smooth="yes"/>
      <point x="351" y="169"/>
      <point x="342" y="161"/>
      <point x="263" y="161" type="curve" smooth="yes"/>
      <point x="208" y="161"/>
      <point x="103" y="172"/>
      <point x="44" y="189" type="curve"/>
      <point x="44" y="18" type="line"/>
      <point x="105" y="3"/>
      <point x="178" y="-8"/>
      <point x="265" y="-8" type="curve" smooth="yes"/>
      <point x="462" y="-8"/>
      <point x="582" y="70"/>
    </contour>
    <contour>
      <point x="310" y="611" type="move" name="top"/>
    </contour>
    <contour>
      <point x="310" y="0" type="move" name="bottom"/>
    </contour>
  </outline>
</glyph>
<glyph name="U" format="1">
  <advance width="766"/>
  <unicode hex="0055"/>
  <outline>
    <contour>
      <point x="720" y="289" type="curve" smooth="yes"/>
      <point x="720" y="595" type="line"/>
      <point x="488" y="595" type="line"/>
      <point x="488" y="272" type="line" smooth="yes"/>
      <point x="488" y="201"/>
      <point x="453" y="168"/>
      <point x="385" y="168" type="curve" smooth="yes"/>
      <point x="317" y="168"/>
      <point x="282" y="201"/>
      <point x="282" y="272" type="curve" smooth="yes"/>
      <point x="282" y="595" type="line"/>
      <point x="46" y="595" type="line"/>
      <point x="46" y="289" type="line" smooth="yes"/>
      <point x="46" y="106"/>
      <point x="140" y="-8"/>
      <point x="385" y="-8" type="curve" smooth="yes"/>
      <point x="624" y="-8"/>
      <point x="720" y="106"/>
    </contour>
    <contour>
      <point x="503" y="0" type="move" name="ogonek"/>
    </contour>
    <contour>
      <point x="385" y="611" type="move" name="top"/>
    </contour>
    <contour>
      <point x="488" y="595" type="move" name="topright"/>
    </contour>
    <contour>
      <point x="385" y="0" type="move" name="bottom"/>
    </contour>
  </outline>
</glyph>
<glyph name="V" format="1">
  <advance width="770"/>
  <unicode hex="0056"/>
  <outline>
    <contour>
      <point x="556" y="0" type="line"/>
      <point x="769" y="595" type="line"/>
      <point x="537" y="595" type="line"/>
      <point x="363" y="91" type="line"/>
      <point x="418" y="91" type="line"/>
      <point x="249" y="595" type="line"/>
      <point x="1" y="595" type="line"/>
      <point x="214" y="0" type="line"/>
    </contour>
  </outline>
</glyph>
<glyph name="W" format="1">
  <advance width="1211"/>
  <unicode hex="0057"/>
  <outline>
    <contour>
      <point x="487" y="0" type="line"/>
      <point x="641" y="481" type="line"/>
      <point x="577" y="481" type="line"/>
      <point x="724" y="0" type="line"/>
      <point x="1021" y="0" type="line"/>
      <point x="1206" y="595" type="line"/>
      <point x="982" y="595" type="line"/>
      <point x="839" y="111" type="line"/>
      <point x="885" y="111" type="line"/>
      <point x="740" y="595" type="line"/>
      <point x="483" y="595" type="line"/>
      <point x="329" y="111" type="line"/>
      <point x="381" y="111" type="line"/>
      <point x="243" y="595" type="line"/>
      <point x="5" y="595" type="line"/>
      <point x="190" y="0" type="line"/>
    </contour>
    <contour>
      <point x="605" y="611" type="move" name="top"/>
    </contour>
    <contour>
      <point x="605" y="0" type="move" name="bottom"/>
    </contour>
  </outline>
</glyph>
<glyph name="X" format="1">
  <advance width="697"/>
  <unicode hex="0058"/>
  <outline>
    <contour>
      <point x="736" y="0" type="line"/>
      <point x="485" y="317" type="line"/>
      <point x="349" y="459" type="line"/>
      <point x="245" y="595" type="line"/>
      <point x="-16" y="595" type="line"/>
      <point x="209" y="313" type="line"/>
      <point x="344" y="171" type="line"/>
      <point x="475" y="0" type="line"/>
    </contour>
    <contour>
      <point x="215" y="0" type="line"/>
      <point x="344" y="171" type="line"/>
      <point x="485" y="317" type="line"/>
      <point x="704" y="595" type="line"/>
      <point x="452" y="595" type="line"/>
      <point x="349" y="459" type="line"/>
      <point x="209" y="313" type="line"/>
      <point x="-38" y="0" type="line"/>
    </contour>
  </outline>
</glyph>
<glyph name="Y" format="1">
  <advance width="676"/>
  <unicode hex="0059"/>
  <outline>
    <contour>
      <point x="458" y="0" type="line"/>
      <point x="458" y="318" type="line"/>
      <point x="413" y="172" type="line"/>
      <point x="696" y="595" type="line"/>
      <point x="466" y="595" type="line"/>
      <point x="312" y="363" type="line"/>
      <point x="376" y="363" type="line"/>
      <point x="218" y="595" type="line"/>
      <point x="-30" y="595" type="line"/>
      <point x="267" y="172" type="line"/>
      <point x="222" y="320" type="line"/>
      <point x="222" y="0" type="line"/>
    </contour>
    <contour>
      <point x="4" y="595" type="move" name="topleft"/>
    </contour>
    <contour>
      <point x="337" y="611" type="move" name="top"/>
    </contour>
    <contour>
      <point x="337" y="0" type="move" name="bottom"/>
    </contour>
  </outline>
</glyph>
<glyph name="Z" format="1">
  <advance width="650"/>
  <unicode hex="005A"/>
  <outline>
    <contour>
      <point x="613" y="0" type="line"/>
      <point x="613" y="172" type="line"/>
      <point x="307" y="172" type="line"/>
      <point x="306" y="132" type="line"/>
      <point x="609" y="476" type="line"/>
      <point x="609" y="595" type="line"/>
      <point x="40" y="595" type="line"/>
      <point x="40" y="423" type="line"/>
      <point x="339" y="423" type="line"/>
      <point x="340" y="463" type="line"/>
      <point x="36" y="119" type="line"/>
      <point x="36" y="0" type="line"/>
    </contour>
    <contour>
      <point x="325" y="611" type="move" name="top"/>
    </contour>
    <contour>
      <point x="325" y="0" type="move" name="bottom"/>
    </contour>
  </outline>
</glyph>
<glyph name="a" format="1">
  <advance width="592"/>
  <unicode hex="0061"/>
  <outline>
    <contour>
      <point x="338" y="33" type="curve"/>
      <point x="347" y="33" type="line"/>
      <point x="362" y="0" type="line"/>
      <point x="552" y="0" type="line"/>
      <point x="552" y="218" type="line" smooth="yes"/>
      <point x="552" y="393"/>
      <point x="471" y="451"/>
      <point x="260" y="451" type="curve" smooth="yes"/>
      <point x="206" y="451"/>
      <point x="132" y="445"/>
      <point x="71" y="430" type="curve"/>
      <point x="71" y="281" type="line"/>
      <point x="116" y="292"/>
      <point x="177" y="298"/>
      <point x="217" y="298" type="curve" smooth="yes"/>
      <point x="305" y="298"/>
      <point x="327" y="280"/>
      <point x="327" y="237" type="curve" smooth="yes"/>
      <point x="327" y="129" type="line"/>
      <point x="313" y="127"/>
      <point x="297" y="129"/>
      <point x="286" y="129" type="curve" smooth="yes"/>
      <point x="258" y="129"/>
      <point x="245" y="138"/>
      <point x="245" y="149" type="curve" smooth="yes"/>
      <point x="245" y="162"/>
      <point x="255" y="173"/>
      <point x="288" y="174" type="curve" smooth="yes"/>
      <point x="385" y="177" type="line"/>
      <point x="362" y="279" type="line"/>
      <point x="268" y="276" type="line" smooth="yes"/>
      <point x="94" y="268"/>
      <point x="18" y="218"/>
      <point x="18" y="129" type="curve" smooth="yes"/>
      <point x="18" y="53"/>
      <point x="80" y="-9"/>
      <point x="209" y="-9" type="curve" smooth="yes"/>
      <point x="260" y="-9"/>
      <point x="305" y="1"/>
    </contour>
    <contour>
      <point x="294" y="482" type="move" name="top"/>
    </contour>
    <contour>
      <point x="552" y="0" type="move" name="ogonek"/>
    </contour>
    <contour>
      <point x="292" y="0" type="move" name="bottom"/>
    </contour>
  </outline>
</glyph>
<glyph name="o" format="1">
  <advance width="645"/>
  <unicode hex="006F"/>
  <outline>
    <contour>
      <point x="622" y="222" type="curve" smooth="yes"/>
      <point x="622" y="362"/>
      <point x="515" y="451"/>
      <point x="322" y="451" type="curve" smooth="yes"/>
      <point x="130" y="451"/>
      <point x="23" y="363"/>
      <point x="23" y="222" type="curve" smooth="yes"/>
      <point x="23" y="82"/>
      <point x="141" y="-9"/>
      <point x="322" y="-9" type="curve" smooth="yes"/>
      <point x="504" y="-9"/>
      <point x="622" y="81"/>
    </contour>
    <contour>
      <point x="249" y="222" type="curve" smooth="yes"/>
      <point x="249" y="268"/>
      <point x="273" y="289"/>
      <point x="322" y="289" type="curve" smooth="yes"/>
      <point x="372" y="289"/>
      <point x="396" y="268"/>
      <point x="396" y="222" type="curve" smooth="yes"/>
      <point x="396" y="176"/>
      <point x="372" y="153"/>
      <point x="322" y="153" type="curve" smooth="yes"/>
      <point x="273" y="153"/>
      <point x="249" y="176"/>
    </contour>
    <contour>
      <point x="322" y="222" type="move" name="center"/>
    </contour>
    <contour>
      <point x="417" y="0" type="move" name="ogonek"/>
    </contour>
    <contour>
      <point x="322" y="482" type="move" name="top"/>
    </contour>
    <contour>
      <point x="312" y="444" type="move" name="topright"/>
    </contour>
    <contour>
      <point x="322" y="0" type="move" name="bottom"/>
    </contour>
  </outline>
</glyph>
<glyph name="AE" format="1">
  <advance width="1050"/>
  <unicode hex="00C6"/>
  <outline>
    <contour>
      <point x="231" y="0" type="line"/>
      <point x="369" y="427" type="line"/>
      <point x="536" y="427" type="line"/>
      <point x="535" y="595" type="line"/>
      <point x="216" y="595" type="line"/>
      <point x="4" y="0" type="line"/>
    </contour>
    <contour>
      <point x="524" y="119" type="line"/>
      <point x="524" y="282" type="line"/>
      <point x="281" y="282" type="line"/>
      <point x="226" y="119" type="line"/>
    </contour>
    <contour>
      <point x="1015" y="0" type="line"/>
      <point x="1015" y="165" type="line"/>
      <point x="705" y="165" type="line"/>
      <point x="675" y="430" type="line"/>
      <point x="1011" y="430" type="line"/>
      <point x="1011" y="595" type="line"/>
      <point x="429" y="595" type="line"/>
      <point x="484" y="0" type="line"/>
    </contour>
    <contour>
      <point x="965" y="221" type="line"/>
      <point x="965" y="385" type="line"/>
      <point x="549" y="385" type="line"/>
      <point x="549" y="221" type="line"/>
    </contour>
    <contour>
      <point x="552" y="611" type="move" name="top"/>
    </contour>
    <contour>
      <point x="542" y="0" type="move" name="bottom"/>
    </contour>
  </outline>
</glyph>
<glyph name="Eth" format="1">
  <advance width="789"/>
  <unicode hex="00D0"/>
  <outline>
    <contour>
      <point x="758" y="297" type="curve" smooth="yes"/>
      <point x="758" y="507"/>
      <point x="609" y="601"/>
      <point x="325" y="601" type="curve" smooth="yes"/>
      <point x="234" y="601"/>
      <point x="119" y="590"/>
      <point x="48" y="574" type="curve"/>
      <point x="48" y="5" type="line"/>
      <point x="117" y="-3"/>
      <point x="212" y="-6"/>
      <point x="272" y="-6" type="curve" smooth="yes"/>
      <point x="600" y="-6"/>
      <point x="758" y="76"/>
    </contour>
    <contour>
      <point x="284" y="167" type="curve"/>
      <point x="284" y="424" type="line"/>
      <point x="297" y="426"/>
      <point x="322" y="428"/>
      <point x="337" y="428" type="curve" smooth="yes"/>
      <point x="462" y="428"/>
      <point x="520" y="390"/>
      <point x="520" y="299" type="curve" smooth="yes"/>
      <point x="520" y="205"/>
      <point x="467" y="167"/>
      <point x="338" y="167" type="curve" smooth="yes"/>
      <point x="319" y="167"/>
      <point x="302" y="166"/>
    </contour>
    <contour>
      <point x="389" y="242" type="line"/>
      <point x="389" y="372" type="line"/>
      <point x="3" y="372" type="line"/>
      <point x="3" y="242" type="line"/>
    </contour>
    <contour>
      <point x="388" y="297" type="move" name="center"/>
    </contour>
    <contour>
      <point x="48" y="306" type="move" name="stroke"/>
    </contour>
    <contour>
      <point x="335" y="611" type="move" name="top"/>
    </contour>
    <contour>
      <point x="346" y="0" type="move" name="bottom"/>
    </contour>
  </outline>
</glyph>
<glyph name="Thorn" format="1">
  <advance width="673"/>
  <unicode hex="00DE"/>
  <outline>
    <contour>
      <point x="284" y="0" type="line"/>
      <point x="284" y="76" type="line"/>
      <point x="295" y="77"/>
      <point x="314" y="77"/>
      <point x="327" y="77" type="curve" smooth="yes"/>
      <point x="527" y="77"/>
      <point x="638" y="152"/>
      <point x="638" y="305" type="curve" smooth="yes"/>
      <point x="638" y="464"/>
      <point x="528" y="534"/>
      <point x="298" y="534" type="curve" smooth="yes"/>
      <point x="298" y="534"/>
      <point x="289" y="534"/>
      <point x="284" y="536" type="curve"/>
      <point x="284" y="595" type="line"/>
      <point x="48" y="595" type="line"/>
      <point x="48" y="0" type="line"/>
    </contour>
    <contour>
      <point x="284" y="230" type="curve"/>
      <point x="284" y="381" type="line"/>
      <point x="296" y="382"/>
      <point x="305" y="383"/>
      <point x="317" y="383" type="curve" smooth="yes"/>
      <point x="384" y="383"/>
      <point x="411" y="360"/>
      <point x="411" y="305" type="curve" smooth="yes"/>
      <point x="411" y="245"/>
      <point x="383" y="228"/>
      <point x="327" y="228" type="curve" smooth="yes"/>
      <point x="311" y="228"/>
      <point x="301" y="229"/>
    </contour>
  </outline>
</glyph>
<glyph name="Hbar" format="1">
  <advance width="782"/>
  <unicode hex="0126"/>
  <outline>
    <contour>
      <point x="284" y="0" type="line"/>
      <point x="284" y="209" type="line"/>
      <point x="498" y="209" type="line"/>
      <point x="498" y="0" type="line"/>
      <point x="734" y="0" type="line"/>
      <point x="734" y="595" type="line"/>
      <point x="498" y="595" type="line"/>
      <point x="498" y="397" type="line"/>
      <point x="284" y="397" type="line"/>
      <point x="284" y="595" type="line"/>
      <point x="48" y="595" type="line"/>
      <point x="48" y="0" type="line"/>
    </contour>
    <contour>
      <point x="779" y="432" type="line"/>
      <point x="779" y="563" type="line"/>
      <point x="2" y="563" type="line"/>
      <point x="2" y="432" type="line"/>
    </contour>
    <contour>
      <point x="392" y="498" type="move" name="center"/>
    </contour>
    <contour>
      <point x="392" y="611" type="move" name="top"/>
    </contour>
    <contour>
      <point x="18" y="595" type="move" name="topleft"/>
    </contour>
    <contour>
      <point x="392" y="0" type="move" name="bottom"/>
    </contour>
  </outline>
</glyph>
<glyph name="Lslash" format="1">
  <advance width="596"/>
  <unicode hex="0141"/>
  <outline>
    <contour>
      <point x="466" y="406" type="line"/>
      <point x="408" y="522" type="line"/>
      <point x="-34" y="338" type="line"/>
      <point x="25" y="221" type="line"/>
    </contour>
    <contour>
      <point x="593" y="0" type="line"/>
      <point x="593" y="172" type="line"/>
      <point x="284" y="172" type="line"/>
      <point x="284" y="595" type="line"/>
      <point x="48" y="595" type="line"/>
      <point x="48" y="0" type="line"/>
    </contour>
    <contour>
      <point x="404" y="595" type="move" name="caronalt"/>
    </contour>
    <contour>
      <point x="166" y="611" type="move" name="top"/>
    </contour>
    <contour>
      <point x="461" y="386" type="move" name="periodcentered"/>
    </contour>
    <contour>
      <point x="166" y="350" type="move" name="_slash"/>
    </contour>
    <contour>
      <point x="166" y="350" type="move" name="slash"/>
    </contour>
    <contour>
      <point x="320" y="0" type="move" name="bottom"/>
    </contour>
  </outline>
</glyph>
<glyph name="OE" format="1">
  <advance width="1091"/>
  <unicode hex="0152"/>
  <outline>
    <contour>
      <point x="661" y="0" type="curve" smooth="yes"/>
      <point x="1056" y="0" type="line"/>
      <point x="1056" y="165" type="line"/>
      <point x="733" y="165" type="line"/>
      <point x="733" y="430" type="line"/>
      <point x="1052" y="430" type="line"/>
      <point x="1052" y="595" type="line"/>
      <point x="663" y="595" type="line" smooth="yes"/>
      <point x="607" y="595"/>
      <point x="550" y="601"/>
      <point x="501" y="601" type="curve" smooth="yes"/>
      <point x="188" y="601"/>
      <point x="31" y="509"/>
      <point x="31" y="297" type="curve" smooth="yes"/>
      <point x="31" y="76"/>
      <point x="178" y="-6"/>
      <point x="511" y="-6" type="curve" smooth="yes"/>
      <point x="553" y="-6"/>
      <point x="605" y="0"/>
    </contour>
    <contour>
      <point x="268" y="296" type="curve" smooth="yes"/>
      <point x="268" y="389"/>
      <point x="321" y="427"/>
      <point x="445" y="427" type="curve" smooth="yes"/>
      <point x="465" y="427"/>
      <point x="484" y="427"/>
      <point x="500" y="426" type="curve"/>
      <point x="500" y="169" type="line"/>
      <point x="481" y="168"/>
      <point x="457" y="168"/>
      <point x="445" y="168" type="curve" smooth="yes"/>
      <point x="321" y="168"/>
      <point x="268" y="206"/>
    </contour>
    <contour>
      <point x="1006" y="221" type="line"/>
      <point x="1006" y="385" type="line"/>
      <point x="611" y="385" type="line"/>
      <point x="611" y="221" type="line"/>
    </contour>
    <contour>
      <point x="617" y="611" type="move" name="top"/>
    </contour>
    <contour>
      <point x="617" y="0" type="move" name="bottom"/>
    </contour>
  </outline>
</glyph>
<glyph name="Tbar" format="1">
  <advance width="676"/>
  <unicode hex="0166"/>
  <outline>
    <contour>
      <point x="591" y="208" type="line"/>
      <point x="591" y="338" type="line"/>
      <point x="85" y="338" type="line"/>
      <point x="85" y="208" type="line"/>
    </contour>
    <contour>
      <point x="456" y="0" type="line"/>
      <point x="456" y="423" type="line"/>
      <point x="667" y="423" type="line"/>
      <point x="667" y="595" type="line"/>
      <point x="9" y="595" type="line"/>
      <point x="9" y="423" type="line"/>
      <point x="220" y="423" type="line"/>
      <point x="220" y="0" type="line"/>
    </contour>
    <contour>
      <point x="338" y="273" type="move" name="center"/>
    </contour>
    <contour>
      <point x="338" y="611" type="move" name="top"/>
    </contour>
    <contour>
      <point x="338" y="273" type="move" name="_center"/>
    </contour>
    <contour>
      <point x="338" y="0" type="move" name="bottom"/>
    </contour>
  </outline>
</glyph>
<glyph name="Ohorn" format="1">
  <advance width="833"/>
  <unicode hex="01A0"/>
  <outline>
    <contour>
      <point x="802" y="297" type="curve" smooth="yes"/>
      <point x="802" y="406"/>
      <point x="750" y="495"/>
      <point x="655" y="547" type="curve"/>
      <point x="654" y="506" type="line"/>
      <point x="748" y="506"/>
      <point x="810" y="553"/>
      <point x="810" y="652" type="curve" smooth="yes"/>
      <point x="810" y="668"/>
      <point x="809" y="687"/>
      <point x="803" y="714" type="curve"/>
      <point x="661" y="714" type="line"/>
      <point x="665" y="686"/>
      <point x="665" y="671"/>
      <point x="665" y="658" type="curve" smooth="yes"/>
      <point x="665" y="610"/>
      <point x="636" y="596"/>
      <point x="572" y="596" type="curve" smooth="yes"/>
      <point x="536" y="596"/>
      <point x="465" y="603"/>
      <point x="416" y="603" type="curve" smooth="yes"/>
      <point x="175" y="603"/>
      <point x="31" y="481"/>
      <point x="31" y="297" type="curve" smooth="yes"/>
      <point x="31" y="113"/>
      <point x="176" y="-8"/>
      <point x="416" y="-8" type="curve" smooth="yes"/>
      <point x="656" y="-8"/>
      <point x="802" y="116"/>
    </contour>
    <contour>
      <point x="269" y="301" type="curve" smooth="yes"/>
      <point x="269" y="383"/>
      <point x="320" y="431"/>
      <point x="416" y="431" type="curve" smooth="yes"/>
      <point x="513" y="431"/>
      <point x="564" y="380"/>
      <point x="564" y="294" type="curve" smooth="yes"/>
      <point x="564" y="215"/>
      <point x="516" y="164"/>
      <point x="416" y="164" type="curve" smooth="yes"/>
      <point x="317" y="164"/>
      <point x="269" y="212"/>
    </contour>
    <contour>
      <point x="416" y="611" type="move" name="top"/>
    </contour>
    <contour>
      <point x="416" y="0" type="move" name="bottom"/>
    </contour>
  </outline>
</glyph>
<glyph name="Uhorn" format="1">
  <advance width="766"/>
  <unicode hex="01AF"/>
  <outline>
    <contour>
      <point x="785" y="714" type="curve"/>
      <point x="643" y="714" type="line"/>
      <point x="647" y="686"/>
      <point x="647" y="671"/>
      <point x="647" y="658" type="curve" smooth="yes"/>
      <point x="647" y="610"/>
      <point x="618" y="595"/>
      <point x="554" y="595" type="curve" smooth="yes"/>
      <point x="488" y="595" type="line"/>
      <point x="488" y="272" type="line" smooth="yes"/>
      <point x="488" y="201"/>
      <point x="453" y="168"/>
      <point x="385" y="168" type="curve" smooth="yes"/>
      <point x="317" y="168"/>
      <point x="282" y="201"/>
      <point x="282" y="272" type="curve" smooth="yes"/>
      <point x="282" y="595" type="line"/>
      <point x="46" y="595" type="line"/>
      <point x="46" y="289" type="line" smooth="yes"/>
      <point x="46" y="106"/>
      <point x="140" y="-8"/>
      <point x="385" y="-8" type="curve" smooth="yes"/>
      <point x="624" y="-8"/>
      <point x="720" y="106"/>
      <point x="720" y="289" type="curve" smooth="yes"/>
      <point x="720" y="519" type="line"/>
      <point x="765" y="542"/>
      <point x="792" y="585"/>
      <point x="792" y="652" type="curve" smooth="yes"/>
      <point x="792" y="668"/>
      <point x="791" y="687"/>
    </contour>
    <contour>
      <point x="383" y="611" type="move" name="top"/>
    </contour>
    <contour>
      <point x="383" y="0" type="move" name="bottom"/>
    </contour>
  </outline>
</glyph>
<glyph name="Germandbls" format="1">
  <advance width="939"/>
  <outline>
    <contour>
      <point x="916" y="194" type="curve" smooth="yes"/>
      <point x="916" y="298"/>
      <point x="851" y="349"/>
      <point x="706" y="380" type="curve" smooth="yes"/>
      <point x="624" y="397"/>
      <point x="618" y="402"/>
      <point x="618" y="413" type="curve" smooth="yes"/>
      <point x="618" y="422"/>
      <point x="633" y="434"/>
      <point x="723" y="434" type="curve" smooth="yes"/>
      <point x="774" y="434"/>
      <point x="840" y="426"/>
      <point x="879" y="415" type="curve"/>
      <point x="879" y="587" type="line"/>
      <point x="837" y="596"/>
      <point x="778" y="603"/>
      <point x="712" y="603" type="curve" smooth="yes"/>
      <point x="493" y="603"/>
      <point x="388" y="533"/>
      <point x="388" y="403" type="curve" smooth="yes"/>
      <point x="388" y="306"/>
      <point x="450" y="242"/>
      <point x="581" y="219" type="curve" smooth="yes"/>
      <point x="674" y="204"/>
      <point x="686" y="195"/>
      <point x="686" y="178" type="curve" smooth="yes"/>
      <point x="686" y="167"/>
      <point x="678" y="161"/>
      <point x="614" y="161" type="curve" smooth="yes"/>
      <point x="562" y="161"/>
      <point x="463" y="172"/>
      <point x="407" y="189" type="curve"/>
      <point x="407" y="18" type="line"/>
      <point x="466" y="3"/>
      <point x="535" y="-8"/>
      <point x="616" y="-8" type="curve" smooth="yes"/>
      <point x="802" y="-8"/>
      <point x="916" y="70"/>
    </contour>
    <contour>
      <point x="284" y="0" type="line"/>
      <point x="284" y="361" type="line" smooth="yes"/>
      <point x="284" y="403"/>
      <point x="309" y="433"/>
      <point x="357" y="433" type="curve" smooth="yes"/>
      <point x="386" y="433"/>
      <point x="408" y="423"/>
      <point x="430" y="409" type="curve"/>
      <point x="557" y="553" type="line"/>
      <point x="499" y="585"/>
      <point x="433" y="603"/>
      <point x="357" y="603" type="curve" smooth="yes"/>
      <point x="144" y="603"/>
      <point x="48" y="494"/>
      <point x="48" y="335" type="curve" smooth="yes"/>
      <point x="48" y="0" type="line"/>
    </contour>
  </outline>
</glyph>
<glyph name="Schwa" format="1">
  <advance width="815"/>
  <outline>
    <contour>
      <point x="784" y="288" type="curve" smooth="yes"/>
      <point x="784" y="501"/>
      <point x="631" y="603"/>
      <point x="306" y="603" type="curve" smooth="yes"/>
      <point x="234" y="603"/>
      <point x="153" y="598"/>
      <point x="82" y="587" type="curve"/>
      <point x="82" y="415" type="line"/>
      <point x="145" y="426"/>
      <point x="222" y="432"/>
      <point x="289" y="432" type="curve" smooth="yes"/>
      <point x="463" y="432"/>
      <point x="556" y="395"/>
      <point x="556" y="284" type="curve" smooth="yes"/>
      <point x="556" y="184"/>
      <point x="513" y="152"/>
      <point x="414" y="152" type="curve" smooth="yes"/>
      <point x="304" y="152"/>
      <point x="264" y="190"/>
      <point x="264" y="284" type="curve"/>
      <point x="192" y="208" type="line"/>
      <point x="617" y="208" type="line"/>
      <point x="617" y="358" type="line"/>
      <point x="27" y="358" type="line"/>
      <point x="27" y="299" type="line" smooth="yes"/>
      <point x="27" y="114"/>
      <point x="170" y="-8"/>
      <point x="411" y="-8" type="curve" smooth="yes"/>
      <point x="650" y="-8"/>
      <point x="784" y="116"/>
    </contour>
    <contour>
      <point x="347" y="592" type="move" name="top"/>
    </contour>
    <contour>
      <point x="347" y="0" type="move" name="bottom"/>
    </contour>
  </outline>
</glyph>
<glyph name="eight.tf" format="1">
  <advance width="634"/>
  <outline>
    <contour>
      <point x="612" y="178" type="curve" smooth="yes"/>
      <point x="612" y="265"/>
      <point x="565" y="327"/>
      <point x="384" y="369" type="curve" smooth="yes"/>
      <point x="265" y="398"/>
      <point x="254" y="411"/>
      <point x="254" y="433" type="curve" smooth="yes"/>
      <point x="254" y="444"/>
      <point x="272" y="462"/>
      <point x="331" y="462" type="curve" smooth="yes"/>
      <point x="378" y="462"/>
      <point x="398" y="447"/>
      <point x="398" y="427" type="curve" smooth="yes"/>
      <point x="398" y="406"/>
      <point x="380" y="382"/>
      <point x="330" y="357" type="curve"/>
      <point x="463" y="313" type="line"/>
      <point x="568" y="342"/>
      <point x="597" y="398"/>
      <point x="597" y="455" type="curve" smooth="yes"/>
      <point x="597" y="548"/>
      <point x="507" y="603"/>
      <point x="338" y="603" type="curve" smooth="yes"/>
      <point x="125" y="603"/>
      <point x="38" y="526"/>
      <point x="38" y="425" type="curve" smooth="yes"/>
      <point x="38" y="339"/>
      <point x="90" y="264"/>
      <point x="269" y="228" type="curve" smooth="yes"/>
      <point x="379" y="205"/>
      <point x="399" y="191"/>
      <point x="399" y="166" type="curve" smooth="yes"/>
      <point x="399" y="148"/>
      <point x="378" y="133"/>
      <point x="319" y="133" type="curve" smooth="yes"/>
      <point x="260" y="133"/>
      <point x="237" y="150"/>
      <point x="237" y="175" type="curve" smooth="yes"/>
      <point x="237" y="195"/>
      <point x="253" y="224"/>
      <point x="315" y="243" type="curve"/>
      <point x="167" y="285" type="line"/>
      <point x="73" y="263"/>
      <point x="22" y="210"/>
      <point x="22" y="142" type="curve" smooth="yes"/>
      <point x="22" y="62"/>
      <point x="101" y="-8"/>
      <point x="318" y="-8" type="curve" smooth="yes"/>
      <point x="532" y="-8"/>
      <point x="612" y="82"/>
    </contour>
  </outline>
</glyph>
<glyph name="five.tf" format="1">
  <advance width="634"/>
  <outline>
    <contour>
      <point x="589" y="188" type="curve" smooth="yes"/>
      <point x="590" y="306"/>
      <point x="503" y="374"/>
      <point x="259" y="384" type="curve" smooth="yes"/>
      <point x="140" y="389" type="line"/>
      <point x="296" y="319" type="line"/>
      <point x="313" y="531" type="line"/>
      <point x="220" y="438" type="line"/>
      <point x="559" y="438" type="line"/>
      <point x="559" y="595" type="line"/>
      <point x="99" y="595" type="line"/>
      <point x="73" y="238" type="line"/>
      <point x="191" y="233" type="line" smooth="yes"/>
      <point x="345" y="227"/>
      <point x="371" y="212"/>
      <point x="371" y="186" type="curve" smooth="yes"/>
      <point x="371" y="165"/>
      <point x="343" y="148"/>
      <point x="257" y="148" type="curve" smooth="yes"/>
      <point x="185" y="148"/>
      <point x="109" y="159"/>
      <point x="54" y="170" type="curve"/>
      <point x="54" y="17" type="line"/>
      <point x="116" y="2"/>
      <point x="188" y="-8"/>
      <point x="272" y="-8" type="curve" smooth="yes"/>
      <point x="491" y="-8"/>
      <point x="588" y="65"/>
    </contour>
  </outline>
</glyph>
<glyph name="four.tf" format="1">
  <advance width="634"/>
  <outline>
    <contour>
      <point x="622" y="93" type="line"/>
      <point x="622" y="261" type="line"/>
      <point x="213" y="261" type="line"/>
      <point x="229" y="210" type="line"/>
      <point x="411" y="595" type="line"/>
      <point x="200" y="595" type="line"/>
      <point x="12" y="210" type="line"/>
      <point x="12" y="93" type="line"/>
    </contour>
    <contour>
      <point x="541" y="0" type="line"/>
      <point x="541" y="394" type="line"/>
      <point x="349" y="394" type="line"/>
      <point x="330" y="261" type="line"/>
      <point x="330" y="0" type="line"/>
    </contour>
  </outline>
</glyph>
<glyph name="nine.tf" format="1">
  <advance width="634"/>
  <outline>
    <contour>
      <point x="25" y="406" type="curve" smooth="yes"/>
      <point x="25" y="273"/>
      <point x="122" y="218"/>
      <point x="251" y="218" type="curve" smooth="yes"/>
      <point x="308" y="218"/>
      <point x="369" y="233"/>
      <point x="401" y="256" type="curve"/>
      <point x="401" y="392" type="line"/>
      <point x="367" y="375"/>
      <point x="336" y="365"/>
      <point x="298" y="365" type="curve" smooth="yes"/>
      <point x="260" y="365"/>
      <point x="234" y="378"/>
      <point x="234" y="411" type="curve" smooth="yes"/>
      <point x="234" y="439"/>
      <point x="256" y="456"/>
      <point x="295" y="456" type="curve" smooth="yes"/>
      <point x="341" y="456"/>
      <point x="369" y="435"/>
      <point x="369" y="353" type="curve" smooth="yes"/>
      <point x="369" y="255" type="line" smooth="yes"/>
      <point x="369" y="195"/>
      <point x="324" y="148"/>
      <point x="212" y="148" type="curve" smooth="yes"/>
      <point x="165" y="148"/>
      <point x="111" y="157"/>
      <point x="67" y="173" type="curve"/>
      <point x="67" y="15" type="line"/>
      <point x="118" y="-2"/>
      <point x="167" y="-8"/>
      <point x="230" y="-8" type="curve" smooth="yes"/>
      <point x="466" y="-8"/>
      <point x="595" y="115"/>
      <point x="595" y="322" type="curve" smooth="yes"/>
      <point x="595" y="505"/>
      <point x="469" y="603"/>
      <point x="295" y="603" type="curve" smooth="yes"/>
      <point x="120" y="603"/>
      <point x="25" y="519"/>
    </contour>
  </outline>
</glyph>
<glyph name="one.tf" format="1">
  <advance width="634"/>
  <outline>
    <contour>
      <point x="467" y="0" type="line"/>
      <point x="467" y="598" type="line"/>
      <point x="309" y="598" type="line"/>
      <point x="82" y="444" type="line"/>
      <point x="82" y="239" type="line"/>
      <point x="309" y="393" type="line"/>
      <point x="231" y="487" type="line"/>
      <point x="231" y="0" type="line"/>
    </contour>
    <contour>
      <point x="609" y="0" type="line"/>
      <point x="609" y="173" type="line"/>
      <point x="82" y="173" type="line"/>
      <point x="82" y="0" type="line"/>
    </contour>
  </outline>
</glyph>
<glyph name="seven.tf" format="1">
  <advance width="634"/>
  <outline>
    <contour>
      <point x="375" y="0" type="line"/>
      <point x="580" y="482" type="line"/>
      <point x="580" y="595" type="line"/>
      <point x="35" y="595" type="line"/>
      <point x="35" y="423" type="line"/>
      <point x="435" y="423" type="line"/>
      <point x="354" y="481" type="line"/>
      <point x="132" y="0" type="line"/>
    </contour>
  </outline>
</glyph>
<glyph name="six.tf" format="1">
  <advance width="634"/>
  <outline>
    <contour>
      <point x="609" y="189" type="curve" smooth="yes"/>
      <point x="609" y="322"/>
      <point x="512" y="377"/>
      <point x="383" y="377" type="curve" smooth="yes"/>
      <point x="327" y="377"/>
      <point x="265" y="362"/>
      <point x="233" y="339" type="curve"/>
      <point x="233" y="203" type="line"/>
      <point x="268" y="220"/>
      <point x="298" y="230"/>
      <point x="336" y="230" type="curve" smooth="yes"/>
      <point x="374" y="230"/>
      <point x="400" y="216"/>
      <point x="400" y="184" type="curve" smooth="yes"/>
      <point x="400" y="156"/>
      <point x="378" y="139"/>
      <point x="339" y="139" type="curve" smooth="yes"/>
      <point x="293" y="139"/>
      <point x="265" y="160"/>
      <point x="265" y="242" type="curve" smooth="yes"/>
      <point x="265" y="340" type="line" smooth="yes"/>
      <point x="265" y="400"/>
      <point x="310" y="446"/>
      <point x="422" y="446" type="curve" smooth="yes"/>
      <point x="469" y="446"/>
      <point x="523" y="438"/>
      <point x="567" y="422" type="curve"/>
      <point x="567" y="580" type="line"/>
      <point x="516" y="597"/>
      <point x="467" y="603"/>
      <point x="405" y="603" type="curve" smooth="yes"/>
      <point x="168" y="603"/>
      <point x="39" y="480"/>
      <point x="39" y="273" type="curve" smooth="yes"/>
      <point x="39" y="90"/>
      <point x="165" y="-8"/>
      <point x="339" y="-8" type="curve" smooth="yes"/>
      <point x="514" y="-8"/>
      <point x="609" y="76"/>
    </contour>
  </outline>
</glyph>
<glyph name="slashcomb.case" format="1">
  <advance width="752"/>
  <outline>
    <contour>
      <point x="728" y="553" type="line"/>
      <point x="647" y="624" type="line"/>
      <point x="56" y="42" type="line"/>
      <point x="138" y="-29" type="line"/>
    </contour>
    <contour>
      <point x="392" y="297" type="move" name="_center"/>
    </contour>
  </outline>
</glyph>
<glyph name="slashcomb" format="1">
  <advance width="480"/>
  <outline>
    <contour>
      <point x="146" y="36" type="line"/>
      <point x="186" y="94" type="line"/>
      <point x="361" y="300" type="line"/>
      <point x="410" y="349" type="line"/>
      <point x="476" y="426" type="line"/>
      <point x="400" y="486" type="line"/>
      <point x="334" y="408" type="line"/>
      <point x="295" y="350" type="line"/>
      <point x="119" y="143" type="line"/>
      <point x="70" y="95" type="line"/>
      <point x="4" y="17" type="line"/>
      <point x="80" y="-42" type="line"/>
    </contour>
    <contour>
      <point x="240" y="222" type="move" name="_center"/>
    </contour>
  </outline>
</glyph>
<glyph name="slashshortcomb.case" format="1">
  <advance width="463"/>
  <outline>
    <contour>
      <point x="471" y="367" type="line"/>
      <point x="413" y="483" type="line"/>
      <point x="-29" y="299" type="line"/>
      <point x="30" y="182" type="line"/>
    </contour>
    <contour>
      <point x="171" y="311" type="move" name="_slash"/>
    </contour>
  </outline>
</glyph>
<glyph name="slashshortcomb" format="1">
  <advance width="342"/>
  <outline>
    <contour>
      <point x="372" y="328" type="line"/>
      <point x="315" y="441" type="line"/>
      <point x="-30" y="294" type="line"/>
      <point x="26" y="182" type="line"/>
    </contour>
    <contour>
      <point x="171" y="311" type="move" name="_slash"/>
    </contour>
  </outline>
</glyph>
<glyph name="strokelongcomb.case" format="1">
  <advance width="782"/>
  <outline>
    <contour>
      <point x="780" y="413" type="line"/>
      <point x="780" y="544" type="line"/>
      <point x="3" y="544" type="line"/>
      <point x="3" y="413" type="line"/>
    </contour>
    <contour>
      <point x="392" y="479" type="move" name="_center"/>
    </contour>
  </outline>
</glyph>
<glyph name="strokeshortcomb.D" format="1">
  <advance width="652"/>
  <outline>
    <contour>
      <point x="472" y="379" type="line"/>
      <point x="472" y="509" type="line"/>
      <point x="86" y="509" type="line"/>
      <point x="86" y="379" type="line"/>
    </contour>
    <contour>
      <point x="131" y="444" type="move" name="_stroke"/>
    </contour>
  </outline>
</glyph>
<glyph name="strokeshortcomb.case" format="1">
  <advance width="648"/>
  <outline>
    <contour>
      <point x="588" y="369" type="line"/>
      <point x="588" y="499" type="line"/>
      <point x="82" y="499" type="line"/>
      <point x="82" y="369" type="line"/>
    </contour>
    <contour>
      <point x="335" y="434" type="move" name="_center"/>
    </contour>
  </outline>
</glyph>
<glyph name="strokeshortcomb.d" format="1">
  <advance width="652"/>
  <outline>
    <contour>
      <point x="574" y="384" type="line"/>
      <point x="574" y="504" type="line"/>
      <point x="120" y="504" type="line"/>
      <point x="120" y="384" type="line"/>
    </contour>
    <contour>
      <point x="530" y="444" type="move" name="_stroke"/>
    </contour>
  </outline>
</glyph>
<glyph name="strokeshortcomb.h" format="1">
  <advance width="652"/>
  <outline>
    <contour>
      <point x="548" y="384" type="line"/>
      <point x="548" y="504" type="line"/>
      <point x="95" y="504" type="line"/>
      <point x="95" y="384" type="line"/>
    </contour>
    <contour>
      <point x="139" y="444" type="move" name="_stroke"/>
    </contour>
  </outline>
</glyph>
<glyph name="strokeshortcomb.t" format="1">
  <advance width="652"/>
  <outline>
    <contour>
      <point x="444" y="388" type="line"/>
      <point x="444" y="499" type="line"/>
      <point x="95" y="499" type="line"/>
      <point x="95" y="388" type="line"/>
    </contour>
    <contour>
      <point x="139" y="444" type="move" name="_stroke"/>
    </contour>
  </outline>
</glyph>
<glyph name="three.tf" format="1">
  <advance width="634"/>
  <outline>
    <contour>
      <point x="574" y="172" type="curve" smooth="yes"/>
      <point x="574" y="254"/>
      <point x="519" y="294"/>
      <point x="441" y="307" type="curve"/>
      <point x="441" y="304" type="line"/>
      <point x="507" y="319"/>
      <point x="550" y="367"/>
      <point x="550" y="428" type="curve" smooth="yes"/>
      <point x="550" y="539"/>
      <point x="456" y="603"/>
      <point x="248" y="603" type="curve" smooth="yes"/>
      <point x="181" y="603"/>
      <point x="96" y="592"/>
      <point x="49" y="579" type="curve"/>
      <point x="49" y="425" type="line"/>
      <point x="98" y="440"/>
      <point x="171" y="450"/>
      <point x="225" y="450" type="curve" smooth="yes"/>
      <point x="301" y="450"/>
      <point x="326" y="435"/>
      <point x="326" y="411" type="curve" smooth="yes"/>
      <point x="326" y="395"/>
      <point x="311" y="380"/>
      <point x="230" y="380" type="curve" smooth="yes"/>
      <point x="101" y="380" type="line"/>
      <point x="101" y="226" type="line"/>
      <point x="242" y="226" type="line" smooth="yes"/>
      <point x="334" y="226"/>
      <point x="357" y="212"/>
      <point x="357" y="185" type="curve" smooth="yes"/>
      <point x="357" y="160"/>
      <point x="328" y="145"/>
      <point x="243" y="145" type="curve" smooth="yes"/>
      <point x="171" y="145"/>
      <point x="95" y="155"/>
      <point x="40" y="166" type="curve"/>
      <point x="40" y="13" type="line"/>
      <point x="101" y="1"/>
      <point x="174" y="-8"/>
      <point x="258" y="-8" type="curve" smooth="yes"/>
      <point x="485" y="-8"/>
      <point x="574" y="64"/>
    </contour>
  </outline>
</glyph>
<glyph name="two.tf" format="1">
  <advance width="634"/>
  <outline>
    <contour>
      <point x="587" y="0" type="line"/>
      <point x="587" y="172" type="line"/>
      <point x="312" y="172" type="line"/>
      <point x="304" y="116" type="line"/>
      <point x="454" y="242" type="line" smooth="yes"/>
      <point x="526" y="302"/>
      <point x="558" y="357"/>
      <point x="558" y="417" type="curve" smooth="yes"/>
      <point x="558" y="542"/>
      <point x="462" y="603"/>
      <point x="232" y="603" type="curve" smooth="yes"/>
      <point x="170" y="603"/>
      <point x="81" y="590"/>
      <point x="36" y="579" type="curve"/>
      <point x="36" y="407" type="line"/>
      <point x="78" y="420"/>
      <point x="149" y="434"/>
      <point x="213" y="434" type="curve" smooth="yes"/>
      <point x="303" y="434"/>
      <point x="327" y="419"/>
      <point x="327" y="392" type="curve" smooth="yes"/>
      <point x="327" y="371"/>
      <point x="307" y="349"/>
      <point x="257" y="305" type="curve" smooth="yes"/>
      <point x="44" y="113" type="line"/>
      <point x="44" y="0" type="line"/>
    </contour>
  </outline>
</glyph>
<glyph name="zero.tf" format="1">
  <advance width="634"/>
  <outline>
    <contour>
      <point x="609" y="297" type="curve" smooth="yes"/>
      <point x="609" y="495"/>
      <point x="494" y="603"/>
      <point x="317" y="603" type="curve" smooth="yes"/>
      <point x="139" y="603"/>
      <point x="25" y="495"/>
      <point x="25" y="297" type="curve" smooth="yes"/>
      <point x="25" y="100"/>
      <point x="138" y="-8"/>
      <point x="317" y="-8" type="curve" smooth="yes"/>
      <point x="495" y="-8"/>
      <point x="609" y="100"/>
    </contour>
    <contour>
      <point x="252" y="297" type="curve" smooth="yes"/>
      <point x="252" y="399"/>
      <point x="275" y="428"/>
      <point x="317" y="428" type="curve" smooth="yes"/>
      <point x="359" y="428"/>
      <point x="383" y="399"/>
      <point x="383" y="298" type="curve" smooth="yes"/>
      <point x="383" y="196"/>
      <point x="359" y="167"/>
      <point x="317" y="167" type="curve" smooth="yes"/>
      <point x="274" y="167"/>
      <point x="252" y="196"/>
    </contour>
  </outline>
</glyph>
